<svg width="832" height="1280" viewBox="0 0 832 1280" fill="none" xmlns="http://www.w3.org/2000/svg">
<path d="M654.052 800.081C606.955 835.549 546.194 853.283 471.769 853.283C381.064 853.283 308.093 826.537 252.856 773.044C197.619 718.97 170 645.126 170 551.514C170 462.553 197.328 389.872 251.984 333.472C307.221 276.491 376.703 248 460.431 248C529.623 248 585.561 260.347 630.914 287.094V364.049C583.236 332.651 529.332 316.901 466.536 316.901C400.833 316.901 347.34 338.415 306.058 381.441C264.775 423.887 244.134 480.578 244.134 551.514C244.134 624.194 264.485 681.467 305.186 723.331C345.887 764.613 401.996 785.254 473.514 785.254C513.052 785.254 549.683 777.405 583.407 761.706V578.551H454.326V516.627H654.052V797.465H653.18L654.052 800.081Z" fill="white"/>
<path d="M584.279 1031H301.081V512.318H363.415V974.822H584.279V1031Z" fill="white"/>
<path d="M435.703 563.76H432.743V545.547C432.743 539.45 427.79 534.497 421.693 534.497H401.112V531.991C401.112 529.13 398.803 526.821 395.942 526.821H393.535V515.633H396.159C398.211 519.145 405.374 520.803 407.367 520.803C410.978 520.803 413.918 517.606 413.918 513.659C413.918 509.733 410.978 506.516 407.367 506.516C405.374 506.516 398.211 508.194 396.159 511.686H386.984C384.932 508.194 377.749 506.516 375.756 506.516C372.145 506.516 369.205 509.733 369.205 513.659C369.205 517.606 372.145 520.803 375.756 520.803C377.749 520.803 384.932 519.145 386.984 515.633H389.588V526.821H387.181C384.32 526.821 382.011 529.13 382.011 531.991V534.497H364.39C363.305 534.497 362.417 535.365 362.417 536.47V549.552C362.417 550.657 363.305 551.526 364.39 551.526H382.011V554.032C382.011 556.893 384.32 559.202 387.181 559.202H395.942C398.803 559.202 401.112 556.893 401.112 554.032V551.526H417.391V563.76H414.431C413.346 563.76 412.458 564.648 412.458 565.733C412.458 566.818 413.346 567.706 414.431 567.706H435.703C436.788 567.706 437.676 566.818 437.676 565.733C437.676 564.648 436.788 563.76 435.703 563.76Z" fill="white"/>
<path d="M434.025 589.274C434.025 594.937 430.335 601.231 425.067 601.231C419.798 601.231 416.109 594.937 416.109 589.274C416.109 584.044 422.679 573.981 423.429 572.856C424.159 571.751 425.975 571.751 426.705 572.856C427.455 573.981 434.025 584.044 434.025 589.274Z" fill="white"/>
<rect x="595.001" y="287.094" width="35.9127" height="76.9558" fill="white"/>
<path fill-rule="evenodd" clip-rule="evenodd" d="M622.296 384.173C622.296 384.127 622.294 381.678 622.292 380.377H603.627C603.625 381.662 603.624 384.135 603.624 384.173C603.624 399.039 594.02 393.738 594.02 408.424C594.02 418.884 602.5 427.363 612.96 427.363C623.42 427.363 631.9 418.884 631.9 408.424C631.9 393.738 622.296 399.039 622.296 384.173ZM600.623 410.555C600.623 409.952 600.134 409.464 599.532 409.464C598.929 409.464 598.441 409.952 598.441 410.555C598.441 414.081 599.87 417.272 602.18 419.583C604.49 421.893 607.682 423.322 611.208 423.322C611.81 423.322 612.299 422.834 612.299 422.231C612.299 421.628 611.81 421.14 611.208 421.14C608.285 421.14 605.639 419.955 603.723 418.04C601.808 416.124 600.623 413.478 600.623 410.555Z" fill="white"/>
<path d="M621.519 379.286C622.121 379.286 622.61 378.797 622.61 378.194C622.61 377.592 622.121 377.103 621.519 377.103H604.616C604.013 377.103 603.525 377.592 603.525 378.194C603.525 378.797 604.013 379.286 604.616 379.286H621.519ZM642.327 410.456C642.93 410.456 643.418 409.968 643.418 409.365C643.418 408.763 642.93 408.274 642.327 408.274H637.459C636.856 408.274 636.368 408.763 636.368 409.365C636.368 409.968 636.856 410.456 637.459 410.456H642.327ZM637.476 424.891C637.996 425.193 638.663 425.015 638.964 424.495C639.265 423.975 639.088 423.309 638.567 423.007L634.352 420.573C633.831 420.272 633.165 420.45 632.864 420.97C632.563 421.49 632.74 422.156 633.26 422.457L637.476 424.891ZM626.059 434.973C626.361 435.493 627.027 435.671 627.547 435.369C628.067 435.068 628.245 434.402 627.943 433.882L625.509 429.666C625.208 429.145 624.542 428.968 624.022 429.269C623.502 429.571 623.324 430.237 623.625 430.757L626.059 434.973ZM611.127 437.991C611.127 438.593 611.616 439.082 612.219 439.082C612.821 439.082 613.31 438.593 613.31 437.991V433.123C613.31 432.52 612.821 432.032 612.219 432.032C611.616 432.032 611.127 432.52 611.127 433.123V437.991ZM596.692 433.14C596.391 433.66 596.568 434.326 597.089 434.628C597.609 434.929 598.275 434.751 598.576 434.231L601.01 430.015C601.312 429.495 601.134 428.829 600.614 428.528C600.094 428.226 599.428 428.404 599.126 428.924L596.692 433.14ZM586.611 421.723C586.091 422.024 585.913 422.691 586.215 423.211C586.516 423.731 587.182 423.909 587.702 423.607L591.918 421.173C592.439 420.872 592.616 420.206 592.315 419.686C592.013 419.165 591.347 418.988 590.827 419.289L586.611 421.723ZM583.593 406.791C582.99 406.791 582.502 407.28 582.502 407.882C582.502 408.485 582.99 408.974 583.593 408.974H588.461C589.064 408.974 589.552 408.485 589.552 407.882C589.552 407.28 589.064 406.791 588.461 406.791H583.593ZM621.519 373.829C622.121 373.829 622.61 374.318 622.61 374.921C622.61 375.523 622.121 376.012 621.519 376.012H604.616C604.013 376.012 603.525 375.523 603.525 374.921C603.525 374.318 604.013 373.829 604.616 373.829H621.519ZM621.519 372.738C622.121 372.738 622.61 372.25 622.61 371.647C622.61 371.044 622.121 370.556 621.519 370.556H604.616C604.013 370.556 603.525 371.044 603.525 371.647C603.525 372.25 604.013 372.738 604.616 372.738H621.519Z" fill="white"/>
<path fill-rule="evenodd" clip-rule="evenodd" d="M608.189 369.464H617.946C617.612 367.494 615.556 365.978 613.067 365.978C610.579 365.978 608.522 367.494 608.189 369.464Z" fill="white"/>
</svg>
